<svg width="18" height="18" viewBox="0 0 18 18" fill="none" xmlns="http://www.w3.org/2000/svg">
<path fill-rule="evenodd" clip-rule="evenodd" d="M14.0926 16.4074C14.7065 16.4074 15.2953 16.1635 15.7294 15.7294C16.1635 15.2953 16.4074 14.7065 16.4074 14.0926C16.4074 13.4787 16.1635 12.8899 15.7294 12.4558C15.2953 12.0217 14.7065 11.7778 14.0926 11.7778C13.4787 11.7778 12.8899 12.0217 12.4558 12.4558C12.0216 12.8899 11.7778 13.4787 11.7778 14.0926C11.7778 14.7065 12.0216 15.2953 12.4558 15.7294C12.8899 16.1635 13.4787 16.4074 14.0926 16.4074ZM14.0926 17.3333C14.9521 17.3333 15.7764 16.9919 16.3841 16.3842C16.9919 15.7764 17.3333 14.9521 17.3333 14.0926C17.3333 13.2331 16.9919 12.4088 16.3841 11.8011C15.7764 11.1933 14.9521 10.8519 14.0926 10.8519C13.2331 10.8519 12.4088 11.1933 11.801 11.8011C11.1933 12.4088 10.8518 13.2331 10.8518 14.0926C10.8518 14.9521 11.1933 15.7764 11.801 16.3842C12.4088 16.9919 13.2331 17.3333 14.0926 17.3333Z" fill="white"/>
<path fill-rule="evenodd" clip-rule="evenodd" d="M14.0926 12.4723C14.2154 12.4723 14.3331 12.521 14.4199 12.6079C14.5068 12.6947 14.5555 12.8124 14.5555 12.9352V13.901L14.8828 14.2283C14.9672 14.3156 15.0138 14.4325 15.0128 14.5539C15.0117 14.6753 14.963 14.7914 14.8772 14.8773C14.7914 14.9631 14.6753 15.0118 14.5539 15.0128C14.4325 15.0139 14.3155 14.9672 14.2282 14.8829L13.6296 14.2843V12.9352C13.6296 12.8124 13.6784 12.6947 13.7652 12.6079C13.852 12.521 13.9698 12.4723 14.0926 12.4723ZM4.37035 8.53707H3.44442V9.463H4.37035V8.53707ZM3.44442 7.61115C3.19885 7.61115 2.96334 7.7087 2.78969 7.88234C2.61605 8.05599 2.51849 8.2915 2.51849 8.53707V9.463C2.51849 9.70857 2.61605 9.94408 2.78969 10.1177C2.96334 10.2914 3.19885 10.3889 3.44442 10.3889H4.37035C4.61592 10.3889 4.85143 10.2914 5.02507 10.1177C5.19872 9.94408 5.29627 9.70857 5.29627 9.463V8.53707C5.29627 8.2915 5.19872 8.05599 5.02507 7.88234C4.85143 7.7087 4.61592 7.61115 4.37035 7.61115H3.44442ZM8.07405 8.53707H7.14812V9.463H8.07405V8.53707ZM7.14812 7.61115C6.90255 7.61115 6.66704 7.7087 6.49339 7.88234C6.31975 8.05599 6.2222 8.2915 6.2222 8.53707V9.463C6.2222 9.70857 6.31975 9.94408 6.49339 10.1177C6.66704 10.2914 6.90255 10.3889 7.14812 10.3889H8.07405C8.31962 10.3889 8.55513 10.2914 8.72878 10.1177C8.90242 9.94408 8.99997 9.70857 8.99997 9.463V8.53707C8.99997 8.2915 8.90242 8.05599 8.72878 7.88234C8.55513 7.7087 8.31962 7.61115 8.07405 7.61115H7.14812ZM11.7778 8.53707H10.8518V9.463H11.7778V8.53707ZM10.8518 7.61115C10.6063 7.61115 10.3707 7.7087 10.1971 7.88234C10.0235 8.05599 9.9259 8.2915 9.9259 8.53707V9.463C9.9259 9.70857 10.0235 9.94408 10.1971 10.1177C10.3707 10.2914 10.6063 10.3889 10.8518 10.3889H11.7778C12.0233 10.3889 12.2588 10.2914 12.4325 10.1177C12.6061 9.94408 12.7037 9.70857 12.7037 9.463V8.53707C12.7037 8.2915 12.6061 8.05599 12.4325 7.88234C12.2588 7.7087 12.0233 7.61115 11.7778 7.61115H10.8518ZM4.37035 12.2408H3.44442V13.1667H4.37035V12.2408ZM3.44442 11.3148C3.19885 11.3148 2.96334 11.4124 2.78969 11.586C2.61605 11.7597 2.51849 11.9952 2.51849 12.2408V13.1667C2.51849 13.4123 2.61605 13.6478 2.78969 13.8214C2.96334 13.9951 3.19885 14.0926 3.44442 14.0926H4.37035C4.61592 14.0926 4.85143 13.9951 5.02507 13.8214C5.19872 13.6478 5.29627 13.4123 5.29627 13.1667V12.2408C5.29627 11.9952 5.19872 11.7597 5.02507 11.586C4.85143 11.4124 4.61592 11.3148 4.37035 11.3148H3.44442ZM8.07405 12.2408H7.14812V13.1667H8.07405V12.2408ZM7.14812 11.3148C6.90255 11.3148 6.66704 11.4124 6.49339 11.586C6.31975 11.7597 6.2222 11.9952 6.2222 12.2408V13.1667C6.2222 13.4123 6.31975 13.6478 6.49339 13.8214C6.66704 13.9951 6.90255 14.0926 7.14812 14.0926H8.07405C8.31962 14.0926 8.55513 13.9951 8.72878 13.8214C8.90242 13.6478 8.99997 13.4123 8.99997 13.1667V12.2408C8.99997 11.9952 8.90242 11.7597 8.72878 11.586C8.55513 11.4124 8.31962 11.3148 8.07405 11.3148H7.14812Z" fill="white"/>
<path fill-rule="evenodd" clip-rule="evenodd" d="M1.5926 3.44449C1.5926 3.32171 1.64137 3.20395 1.7282 3.11713C1.81502 3.03031 1.93278 2.98153 2.05556 2.98153H4.37038V2.0556H2.05556C1.6872 2.0556 1.33394 2.20193 1.07347 2.4624C0.813001 2.72287 0.666672 3.07614 0.666672 3.44449V14.5556C0.666672 14.924 0.813001 15.2772 1.07347 15.5377C1.33394 15.7982 1.6872 15.9445 2.05556 15.9445H11.4329C11.2354 15.6617 11.0846 15.3491 10.9861 15.0186H2.05556C1.93278 15.0186 1.81502 14.9698 1.7282 14.883C1.64137 14.7961 1.5926 14.6784 1.5926 14.5556V3.44449ZM13.6296 10.8843C13.9367 10.8404 14.2485 10.8404 14.5556 10.8843V3.44449C14.5556 3.07614 14.4092 2.72287 14.1488 2.4624C13.8883 2.20193 13.535 2.0556 13.1667 2.0556H11.7778V2.98153H13.1667C13.2895 2.98153 13.4072 3.03031 13.494 3.11713C13.5809 3.20395 13.6296 3.32171 13.6296 3.44449V10.8843ZM5.2963 2.98153H10.1866V2.0556H5.2963V2.98153Z" fill="white"/>
<path fill-rule="evenodd" clip-rule="evenodd" d="M14.5556 6.22225H1.59259V5.29633H14.5556V6.22225Z" fill="white"/>
<path d="M3.44441 1.12965C3.44441 1.00686 3.49319 0.889108 3.58001 0.802286C3.66683 0.715463 3.78459 0.666687 3.90738 0.666687C4.03016 0.666687 4.14792 0.715463 4.23474 0.802286C4.32156 0.889108 4.37034 1.00686 4.37034 1.12965V3.44446C4.37034 3.56725 4.32156 3.68501 4.23474 3.77183C4.14792 3.85865 4.03016 3.90743 3.90738 3.90743C3.78459 3.90743 3.66683 3.85865 3.58001 3.77183C3.49319 3.68501 3.44441 3.56725 3.44441 3.44446V1.12965ZM9.92589 1.12965C9.92589 1.00686 9.97467 0.889108 10.0615 0.802286C10.1483 0.715463 10.2661 0.666687 10.3889 0.666687C10.5116 0.666687 10.6294 0.715463 10.7162 0.802286C10.803 0.889108 10.8518 1.00686 10.8518 1.12965V3.44446C10.8518 3.56725 10.803 3.68501 10.7162 3.77183C10.6294 3.85865 10.5116 3.90743 10.3889 3.90743C10.2661 3.90743 10.1483 3.85865 10.0615 3.77183C9.97467 3.68501 9.92589 3.56725 9.92589 3.44446V1.12965Z" fill="white"/>
</svg>
