<svg width="17" height="16" viewBox="0 0 17 16" fill="none" xmlns="http://www.w3.org/2000/svg">
<path d="M9.8961 1.46325C9.91732 1.38393 9.95395 1.30956 10.0039 1.24441C10.0539 1.17926 10.1162 1.12458 10.1873 1.08352C10.2584 1.04245 10.3369 1.0158 10.4183 1.00509C10.4997 0.994368 10.5824 0.999795 10.6617 1.02106C11.8204 1.32336 12.8775 1.92906 13.7242 2.77577C14.5709 3.62249 15.1766 4.6796 15.4789 5.83825C15.5002 5.91755 15.5056 6.00027 15.4949 6.08168C15.4842 6.16308 15.4575 6.24158 15.4165 6.31268C15.3754 6.38378 15.3207 6.44609 15.2556 6.49605C15.1904 6.54602 15.116 6.58265 15.0367 6.60387C14.9839 6.61774 14.9296 6.62483 14.875 6.62496C14.7373 6.62496 14.6034 6.57946 14.4942 6.49554C14.385 6.41163 14.3066 6.29398 14.2711 6.1609C14.0245 5.21506 13.5302 4.35208 12.8391 3.66092C12.1479 2.96976 11.2849 2.47542 10.3391 2.22887C10.2597 2.20774 10.1852 2.17116 10.12 2.12123C10.0548 2.07131 10 2.009 9.95885 1.9379C9.91771 1.86679 9.89099 1.78826 9.88023 1.70682C9.86946 1.62537 9.87485 1.5426 9.8961 1.46325ZM9.71407 4.72887C10.7914 5.01637 11.4836 5.70856 11.7711 6.7859C11.8066 6.91898 11.885 7.03663 11.9942 7.12054C12.1034 7.20446 12.2373 7.24996 12.375 7.24996C12.4296 7.24983 12.4839 7.24274 12.5367 7.22887C12.616 7.20765 12.6904 7.17102 12.7556 7.12105C12.8207 7.07109 12.8754 7.00878 12.9165 6.93768C12.9575 6.86658 12.9842 6.78808 12.9949 6.70668C13.0056 6.62527 13.0002 6.54255 12.9789 6.46325C12.5789 4.96637 11.5336 3.92106 10.0367 3.52106C9.95742 3.49987 9.87472 3.49451 9.79334 3.50529C9.71196 3.51607 9.63351 3.54276 9.56245 3.58386C9.49139 3.62496 9.42912 3.67965 9.3792 3.74481C9.32928 3.80997 9.29268 3.88433 9.27149 3.96364C9.25031 4.04294 9.24495 4.12564 9.25572 4.20702C9.2665 4.2884 9.2932 4.36686 9.3343 4.43791C9.37539 4.50897 9.43008 4.57124 9.49525 4.62116C9.56041 4.67109 9.63476 4.70768 9.71407 4.72887ZM16.1156 12.1781C15.9763 13.2367 15.4564 14.2084 14.6531 14.9117C13.8497 15.6151 12.8177 16.0019 11.75 16C5.54688 16 0.500007 10.9531 0.500007 4.74996C0.498093 3.68222 0.884919 2.65029 1.58824 1.84691C2.29155 1.04353 3.26326 0.523641 4.32188 0.384339C4.58958 0.351652 4.86067 0.406419 5.09468 0.540463C5.3287 0.674507 5.51309 0.880639 5.62032 1.12809L7.27032 4.81168V4.82106C7.35242 5.01047 7.38633 5.21728 7.36901 5.42299C7.3517 5.62871 7.2837 5.82693 7.1711 5.99996C7.15704 6.02106 7.14219 6.04059 7.12657 6.06012L5.50001 7.98825C6.08516 9.17731 7.32891 10.4101 8.5336 10.9968L10.4352 9.37887C10.4538 9.36317 10.4734 9.34857 10.4938 9.33512C10.6666 9.21981 10.8655 9.14942 11.0725 9.13033C11.2794 9.11123 11.4878 9.14402 11.6789 9.22575L11.6891 9.23043L15.3695 10.8797C15.6174 10.9865 15.8241 11.1707 15.9585 11.4048C16.093 11.6388 16.1481 11.9101 16.1156 12.1781ZM14.875 12.0218H14.8664L11.1945 10.3773L9.29219 11.9953C9.27374 12.0109 9.25444 12.0255 9.23438 12.039C9.0545 12.159 8.84657 12.2303 8.6309 12.2459C8.41523 12.2615 8.1992 12.2209 8.00391 12.1281C6.54063 11.4211 5.08204 9.9734 4.37423 8.52575C4.2805 8.33188 4.23844 8.11709 4.25213 7.9022C4.26582 7.6873 4.33478 7.47959 4.45235 7.29918C4.4656 7.278 4.48049 7.25789 4.49688 7.23903L6.12501 5.30856L4.48438 1.63668C4.48407 1.63357 4.48407 1.63042 4.48438 1.62731C3.72677 1.72613 3.03116 2.09775 2.52783 2.67255C2.0245 3.24736 1.74796 3.98593 1.75001 4.74996C1.7529 7.40124 2.8074 9.9431 4.68214 11.8178C6.55687 13.6926 9.09873 14.7471 11.75 14.75C12.5136 14.7526 13.2519 14.477 13.8271 13.9748C14.4022 13.4725 14.7747 12.778 14.875 12.0211V12.0218Z" fill="#004098"/>
</svg>
