<svg width="22" height="21" viewBox="0 0 22 21" fill="none" xmlns="http://www.w3.org/2000/svg">
<path d="M5.286 17C2.919 17 1 15.104 1 12.765C1 10.425 2.919 8.529 5.286 8.529C5.57 8.529 5.848 8.557 6.116 8.609M6.116 8.609C5.88111 7.98157 5.7612 7.31695 5.762 6.647C5.762 3.528 8.32 1 11.476 1C14.416 1 16.837 3.194 17.156 6.015M6.116 8.609C6.6693 8.71646 7.196 8.9319 7.666 9.243M13.381 6.027C13.9934 5.81361 14.6375 5.70509 15.286 5.706C15.94 5.706 16.569 5.815 17.156 6.015M17.156 6.015C19.392 6.78 21 8.881 21 11.353C21 14.06 19.073 16.323 16.5 16.873" stroke="#004098" stroke-width="1.5" stroke-linecap="round"/>
<path d="M11 20V14M11 20L13 18M11 20L9 18" stroke="#004098" stroke-width="1.5" stroke-linecap="round" stroke-linejoin="round"/>
</svg>
