<svg width="32" height="33" viewBox="0 0 32 33" fill="none" xmlns="http://www.w3.org/2000/svg">
<rect x="0.5" y="1" width="31" height="31" rx="15.5" fill="white" stroke="#004098"/>
<path d="M22.3415 10.15C20.761 8.57495 18.6537 7.69995 16.4293 7.69995C11.8049 7.69995 8.05854 11.4333 8.05854 16.0416C8.05854 17.5 8.46829 18.9583 9.17073 20.1833L8 24.5L12.4488 23.3333C13.6781 23.975 15.0244 24.325 16.4293 24.325C21.0537 24.325 24.8 20.5916 24.8 15.9833C24.7415 13.825 23.9219 11.725 22.3415 10.15ZM20.4683 19.0166C20.2927 19.4833 19.4732 19.95 19.0634 20.0083C18.7122 20.0666 18.2439 20.0666 17.7756 19.95C17.4829 19.8333 17.0732 19.7166 16.6049 19.4833C14.4976 18.6083 13.1512 16.5083 13.0341 16.3333C12.9171 16.2166 12.1561 15.2249 12.1561 14.175C12.1561 13.1249 12.6829 12.6583 12.8585 12.425C13.0341 12.1916 13.2683 12.1916 13.4439 12.1916C13.561 12.1916 13.7366 12.1916 13.8537 12.1916C13.9707 12.1916 14.1463 12.1333 14.322 12.5416C14.4976 12.95 14.9073 14 14.9659 14.0583C15.0244 14.175 15.0244 14.2916 14.9659 14.4083C14.9073 14.525 14.8488 14.6416 14.7317 14.7583C14.6146 14.8749 14.4976 15.05 14.439 15.1083C14.3219 15.225 14.2049 15.3416 14.322 15.5166C14.439 15.7499 14.8488 16.3916 15.4927 16.9749C16.3122 17.6749 16.9561 17.9083 17.1902 18.025C17.4244 18.1416 17.5415 18.0833 17.6585 17.9666C17.7756 17.8499 18.1854 17.3833 18.3024 17.15C18.4195 16.9166 18.5951 16.975 18.7707 17.0333C18.9463 17.0916 20 17.6166 20.1756 17.7333C20.4098 17.85 20.5268 17.9083 20.5854 17.9666C20.6439 18.1416 20.6439 18.5499 20.4683 19.0166Z" fill="#004098"/>
</svg>
