<svg width="16" height="16" viewBox="0 0 16 16" fill="none" xmlns="http://www.w3.org/2000/svg">
<path d="M8 1.44566C10.1205 1.44566 10.4096 1.44566 11.2771 1.44566C12.0482 1.44566 12.4337 1.63843 12.7229 1.73482C13.1084 1.92759 13.3976 2.02398 13.6867 2.31313C13.9759 2.60229 14.1687 2.89144 14.2651 3.27699C14.3614 3.56614 14.4578 3.95169 14.5542 4.72277C14.5542 5.59024 14.5542 5.78301 14.5542 7.99988C14.5542 10.2167 14.5542 10.4095 14.5542 11.277C14.5542 12.0481 14.3614 12.4336 14.2651 12.7228C14.0723 13.1083 13.9759 13.3975 13.6867 13.6866C13.3976 13.9758 13.1084 14.1686 12.7229 14.2649C12.4337 14.3613 12.0482 14.4577 11.2771 14.5541C10.4096 14.5541 10.2169 14.5541 8 14.5541C5.78313 14.5541 5.59036 14.5541 4.72289 14.5541C3.95181 14.5541 3.56627 14.3613 3.27711 14.2649C2.89157 14.0722 2.60241 13.9758 2.31325 13.6866C2.0241 13.3975 1.83133 13.1083 1.73494 12.7228C1.63855 12.4336 1.54217 12.0481 1.44578 11.277C1.44578 10.4095 1.44578 10.2167 1.44578 7.99988C1.44578 5.78301 1.44578 5.59024 1.44578 4.72277C1.44578 3.95169 1.63855 3.56614 1.73494 3.27699C1.92771 2.89144 2.0241 2.60229 2.31325 2.31313C2.60241 2.02398 2.89157 1.8312 3.27711 1.73482C3.56627 1.63843 3.95181 1.54205 4.72289 1.44566C5.59036 1.44566 5.87952 1.44566 8 1.44566ZM8 -0.00012207C5.78313 -0.00012207 5.59036 -0.00012207 4.72289 -0.00012207C3.85542 -0.00012207 3.27711 0.19265 2.79518 0.385421C2.31325 0.578192 1.83133 0.867348 1.3494 1.34928C0.867471 1.8312 0.674699 2.21675 0.385543 2.79506C0.192772 3.27699 0.0963856 3.8553 0 4.72277C0 5.59024 0 5.8794 0 7.99988C0 10.2167 0 10.4095 0 11.277C0 12.1445 0.192772 12.7228 0.385543 13.2047C0.578314 13.6866 0.867471 14.1686 1.3494 14.6505C1.83133 15.1324 2.21687 15.3252 2.79518 15.6143C3.27711 15.8071 3.85542 15.9035 4.72289 15.9999C5.59036 15.9999 5.87952 15.9999 8 15.9999C10.1205 15.9999 10.4096 15.9999 11.2771 15.9999C12.1446 15.9999 12.7229 15.8071 13.2048 15.6143C13.6867 15.4216 14.1687 15.1324 14.6506 14.6505C15.1325 14.1686 15.3253 13.783 15.6145 13.2047C15.8072 12.7228 15.9036 12.1445 16 11.277C16 10.4095 16 10.1204 16 7.99988C16 5.8794 16 5.59024 16 4.72277C16 3.8553 15.8072 3.27699 15.6145 2.79506C15.4217 2.31313 15.1325 1.8312 14.6506 1.34928C14.1687 0.867348 13.7831 0.674577 13.2048 0.385421C12.7229 0.19265 12.1446 0.0962635 11.2771 -0.00012207C10.4096 -0.00012207 10.2169 -0.00012207 8 -0.00012207Z" fill="#004098"/>
<path d="M8 3.8553C5.68675 3.8553 3.85542 5.68663 3.85542 7.99988C3.85542 10.3131 5.68675 12.1445 8 12.1445C10.3133 12.1445 12.1446 10.3131 12.1446 7.99988C12.1446 5.68663 10.3133 3.8553 8 3.8553ZM8 10.6987C6.55422 10.6987 5.30121 9.54205 5.30121 7.99988C5.30121 6.5541 6.45783 5.30108 8 5.30108C9.44578 5.30108 10.6988 6.45771 10.6988 7.99988C10.6988 9.44566 9.44578 10.6987 8 10.6987Z" fill="#004098"/>
<path d="M12.241 4.72277C12.7733 4.72277 13.2048 4.29124 13.2048 3.75891C13.2048 3.22659 12.7733 2.79506 12.241 2.79506C11.7086 2.79506 11.2771 3.22659 11.2771 3.75891C11.2771 4.29124 11.7086 4.72277 12.241 4.72277Z" fill="#004098"/>
</svg>
