<svg width="24" height="24" viewBox="0 0 24 24" fill="none" xmlns="http://www.w3.org/2000/svg">
<g clip-path="url(#clip0_277_1499)">
<path d="M16.5391 11.7378L16.5276 11.768C16.5312 11.7589 16.5341 11.7496 16.5377 11.7404L16.5391 11.7378Z" fill="white"/>
<path d="M12.0005 -0.00012207C8.04575 -0.00012207 4.79999 3.23508 4.79999 7.18116C4.79999 8.71044 5.28959 10.1356 6.11519 11.3029L6.08567 11.2568L10.6951 19.2244L10.7184 19.2548C10.9041 19.4972 11.088 19.6926 11.3105 19.8397C11.5329 19.9868 11.8178 20.0797 12.0977 20.0516C12.6569 19.9955 12.9818 19.6091 13.2821 19.202L13.3008 19.1768L18.3825 10.5287L18.3866 10.5215C18.5083 10.3019 18.5964 10.0804 18.6717 9.8658C19.0203 9.01364 19.1997 8.10183 19.2 7.18116C19.2 3.23508 15.9552 -0.00012207 12.0005 -0.00012207ZM12.0005 1.19988C15.3014 1.19988 18 3.8922 18 7.18116C18.0002 7.94937 17.8502 8.71021 17.5584 9.42084L17.5524 9.43572L17.5471 9.45132C17.484 9.633 17.4153 9.79788 17.3361 9.94092L12.306 18.5008C12.0835 18.7938 11.928 18.8632 11.9779 18.8579C12.0036 18.8555 12.0273 18.8756 11.9724 18.8392C11.9198 18.8044 11.8125 18.7024 11.6853 18.5401L7.11119 10.6319L7.09511 10.6096C6.40559 9.63516 5.99999 8.45508 5.99999 7.18116C5.99999 3.89244 8.69951 1.19988 12.0005 1.19988ZM12.0005 3.08388C9.72959 3.08388 7.89287 4.91412 7.89287 7.18116C7.89287 9.4482 9.72983 11.2784 12.0005 11.2784C14.2711 11.2784 16.1071 9.44796 16.1071 7.18116C16.1071 4.91412 14.2711 3.08388 12.0005 3.08388ZM12.0005 4.28388C13.6365 4.28388 14.9071 5.55228 14.9071 7.18116C14.9071 8.81004 13.6368 10.0784 12.0005 10.0784C10.3641 10.0784 9.09287 8.8098 9.09287 7.18116C9.09287 5.55228 10.3644 4.28388 12.0005 4.28388Z" fill="white"/>
<path d="M8.16146 16.5736C4.77122 17.0526 2.40002 18.1986 2.40002 19.8856C2.40002 22.1579 6.36194 23.9999 12 23.9999C17.6381 23.9999 21.6 22.1579 21.6 19.8856C21.6 18.1986 19.2291 17.0526 15.8391 16.5736L15.3694 17.3733C17.9244 17.7278 19.68 18.4727 19.68 19.3372C19.68 20.5492 16.2415 21.5315 12 21.5315C7.7585 21.5315 4.32002 20.5492 4.32002 19.3372C4.31978 18.4756 6.06386 17.7314 8.62682 17.3754C8.47202 17.1081 8.3165 16.8412 8.16146 16.5736Z" fill="white"/>
</g>
<defs>
<clipPath id="clip0_277_1499">
<rect width="24" height="24" fill="white"/>
</clipPath>
</defs>
</svg>
