<svg width="20" height="21" viewBox="0 0 20 21" fill="none" xmlns="http://www.w3.org/2000/svg">
<path d="M5.20001 6.19983C5.20001 6.0407 5.26322 5.88809 5.37574 5.77557C5.48827 5.66304 5.64088 5.59983 5.80001 5.59983H9.40001C9.55914 5.59983 9.71175 5.66304 9.82427 5.77557C9.93679 5.88809 10 6.0407 10 6.19983C10 6.35896 9.93679 6.51157 9.82427 6.62409C9.71175 6.73662 9.55914 6.79983 9.40001 6.79983H5.80001C5.64088 6.79983 5.48827 6.73662 5.37574 6.62409C5.26322 6.51157 5.20001 6.35896 5.20001 6.19983ZM5.80001 7.99983C5.64088 7.99983 5.48827 8.06304 5.37574 8.17557C5.26322 8.28809 5.20001 8.4407 5.20001 8.59983C5.20001 8.75896 5.26322 8.91157 5.37574 9.02409C5.48827 9.13662 5.64088 9.19983 5.80001 9.19983H8.20001C8.35914 9.19983 8.51175 9.13662 8.62427 9.02409C8.73679 8.91157 8.80001 8.75896 8.80001 8.59983C8.80001 8.4407 8.73679 8.28809 8.62427 8.17557C8.51175 8.06304 8.35914 7.99983 8.20001 7.99983H5.80001ZM7.60001 0.19983C6.35087 0.199409 5.12311 0.523979 4.03736 1.14165C2.95162 1.75932 2.04525 2.64883 1.40732 3.72279C0.769383 4.79675 0.421829 6.0182 0.398806 7.26713C0.375784 8.51606 0.678085 9.74949 1.27601 10.8462L0.424007 13.8342C0.394028 13.9392 0.393229 14.0503 0.421697 14.1556C0.450165 14.2609 0.506822 14.3565 0.585569 14.4321C0.664317 14.5076 0.762174 14.5602 0.868608 14.5843C0.975042 14.6084 1.08602 14.6029 1.18961 14.5686L3.99521 13.6338C4.95144 14.1864 6.02197 14.5116 7.12398 14.5842C8.226 14.6569 9.32996 14.475 10.3505 14.0528C11.3709 13.6305 12.2806 12.9792 13.0091 12.1491C13.7376 11.319 14.2654 10.3325 14.5516 9.26582C14.8378 8.19915 14.8748 7.08093 14.6597 5.99767C14.4447 4.91441 13.9833 3.89514 13.3113 3.01873C12.6392 2.14231 11.7746 1.43223 10.7843 0.94343C9.79393 0.454626 8.70441 0.200199 7.60001 0.19983ZM1.60001 7.39983C1.6002 6.06855 2.04315 4.77515 2.8591 3.72324C3.67506 2.67133 4.81768 1.92067 6.10709 1.58942C7.3965 1.25817 8.75945 1.36516 9.98138 1.89354C11.2033 2.42191 12.2148 3.34167 12.8566 4.50801C13.4985 5.67435 13.7342 7.02103 13.5267 8.33603C13.3191 9.65103 12.6802 10.8597 11.7103 11.7717C10.7405 12.6837 9.49493 13.2472 8.16966 13.3736C6.8444 13.5 5.51474 13.1821 4.39001 12.4698C4.31477 12.4221 4.22986 12.3918 4.14144 12.381C4.05302 12.3702 3.9633 12.3792 3.87881 12.4074L1.88921 13.071L2.50121 10.9338C2.52351 10.8551 2.52947 10.7727 2.51874 10.6916C2.50801 10.6105 2.48081 10.5324 2.43881 10.4622C1.88784 9.53589 1.59798 8.47764 1.60001 7.39983ZM12.7312 16.9362L9.84881 15.4962C10.3768 15.3486 10.8844 15.1518 11.3644 14.9106L13 15.729L18.4 13.029V12.1998C18.4 11.8816 18.2736 11.5763 18.0485 11.3513C17.8235 11.1263 17.5183 10.9998 17.2 10.9998H15.1912C15.3748 10.6158 15.5284 10.2138 15.652 9.79983H17.2C17.8365 9.79983 18.447 10.0527 18.8971 10.5028C19.3472 10.9529 19.6 11.5633 19.6 12.1998V18.1998C19.6 18.8363 19.3472 19.4468 18.8971 19.8969C18.447 20.347 17.8365 20.5998 17.2 20.5998H8.80001C8.16349 20.5998 7.55304 20.347 7.10295 19.8969C6.65286 19.4468 6.40001 18.8363 6.40001 18.1998V15.7158C6.79241 15.771 7.19201 15.7998 7.60001 15.7998V18.1998C7.60001 18.5181 7.72644 18.8233 7.95148 19.0484C8.17652 19.2734 8.48175 19.3998 8.80001 19.3998H17.2C17.5183 19.3998 17.8235 19.2734 18.0485 19.0484C18.2736 18.8233 18.4 18.5181 18.4 18.1998V14.3706L13.2688 16.9362C13.1854 16.978 13.0933 16.9998 13 16.9998C12.9067 16.9998 12.8146 16.978 12.7312 16.9362Z" fill="white"/>
</svg>
