<svg width="19" height="19" viewBox="0 0 19 19" fill="none" xmlns="http://www.w3.org/2000/svg">
<path d="M11.2753 1.55587C11.3008 1.46069 11.3447 1.37145 11.4047 1.29327C11.4647 1.21508 11.5394 1.14948 11.6248 1.1002C11.7101 1.05092 11.8043 1.01894 11.902 1.00608C11.9996 0.993217 12.0989 0.99973 12.1941 1.02524C13.5844 1.38801 14.853 2.11485 15.869 3.1309C16.8851 4.14696 17.6119 5.4155 17.9747 6.80587C18.0002 6.90104 18.0067 7.0003 17.9939 7.09799C17.981 7.19567 17.949 7.28987 17.8997 7.37519C17.8505 7.46051 17.7849 7.53528 17.7067 7.59524C17.6285 7.6552 17.5393 7.69916 17.4441 7.72462C17.3807 7.74126 17.3155 7.74977 17.25 7.74993C17.0847 7.74993 16.9241 7.69533 16.793 7.59463C16.662 7.49393 16.5679 7.35276 16.5253 7.19306C16.2295 6.05805 15.6363 5.02247 14.8069 4.19308C13.9775 3.36369 12.9419 2.77048 11.8069 2.47462C11.7116 2.44926 11.6223 2.40537 11.544 2.34546C11.4657 2.28554 11.4 2.21078 11.3506 2.12545C11.3013 2.04012 11.2692 1.94589 11.2563 1.84816C11.2433 1.75042 11.2498 1.6511 11.2753 1.55587ZM11.0569 5.47462C12.3497 5.81962 13.1803 6.65024 13.5253 7.94306C13.5679 8.10276 13.662 8.24393 13.793 8.34463C13.9241 8.44533 14.0847 8.49993 14.25 8.49993C14.3155 8.49977 14.3807 8.49126 14.4441 8.47462C14.5393 8.44916 14.6285 8.4052 14.7067 8.34524C14.7849 8.28528 14.8505 8.21051 14.8997 8.12519C14.949 8.03987 14.981 7.94567 14.9939 7.84799C15.0067 7.7503 15.0002 7.65104 14.9747 7.55587C14.4947 5.75962 13.2403 4.50524 11.4441 4.02524C11.3489 3.99982 11.2497 3.99339 11.152 4.00632C11.0544 4.01925 10.9602 4.05129 10.8749 4.10061C10.7897 4.14993 10.7149 4.21555 10.655 4.29375C10.5951 4.37194 10.5512 4.46117 10.5258 4.55634C10.5004 4.65151 10.4939 4.75075 10.5069 4.8484C10.5198 4.94605 10.5518 5.0402 10.6012 5.12547C10.6505 5.21074 10.7161 5.28546 10.7943 5.34537C10.8725 5.40528 10.9617 5.4492 11.0569 5.47462ZM18.7388 14.4137C18.5716 15.684 17.9477 16.8501 16.9837 17.6941C16.0196 18.538 14.7813 19.0022 13.5 18.9999C6.05626 18.9999 8.4831e-06 12.9437 8.4831e-06 5.49993C-0.00228837 4.21864 0.461903 2.98033 1.30588 2.01627C2.14986 1.05222 3.31592 0.428345 4.58626 0.261182C4.9075 0.221958 5.2328 0.287678 5.51362 0.448531C5.79444 0.609384 6.0157 0.856743 6.14438 1.15368L8.12438 5.57399V5.58525C8.2229 5.81254 8.26359 6.06071 8.24282 6.30757C8.22204 6.55443 8.14044 6.7923 8.00532 6.99993C7.98845 7.02525 7.97063 7.04868 7.95188 7.07212L6.00001 9.38587C6.7022 10.8127 8.1947 12.2921 9.64032 12.9962L11.9222 11.0546C11.9446 11.0358 11.9681 11.0183 11.9925 11.0021C12.2 10.8637 12.4387 10.7793 12.687 10.7564C12.9353 10.7334 13.1854 10.7728 13.4147 10.8709L13.4269 10.8765L17.8434 12.8556C18.1409 12.9838 18.3889 13.2049 18.5503 13.4857C18.7116 13.7666 18.7778 14.0921 18.7388 14.4137ZM17.25 14.2262H17.2397L12.8334 12.2527L10.5506 14.1943C10.5285 14.2131 10.5053 14.2306 10.4813 14.2468C10.2654 14.3908 10.0159 14.4764 9.75708 14.4951C9.49828 14.5138 9.23904 14.4651 9.0047 14.3537C7.24876 13.5052 5.49845 11.7681 4.64907 10.0309C4.5366 9.79823 4.48613 9.54049 4.50255 9.28261C4.51898 9.02474 4.60174 8.77548 4.74282 8.55899C4.75872 8.53358 4.77659 8.50944 4.79626 8.48681L6.75001 6.17024L4.78126 1.76399C4.78089 1.76025 4.78089 1.75649 4.78126 1.75274C3.87212 1.87134 3.03739 2.31727 2.43339 3.00704C1.8294 3.69681 1.49755 4.5831 1.50001 5.49993C1.50348 8.68146 2.76888 11.7317 5.01856 13.9814C7.26825 16.2311 10.3185 17.4965 13.5 17.4999C14.4163 17.5031 15.3023 17.1724 15.9925 16.5697C16.6827 15.967 17.1297 15.1336 17.25 14.2252V14.2262Z" fill="black"/>
</svg>
