<svg width="33" height="34" viewBox="0 0 33 34" fill="none" xmlns="http://www.w3.org/2000/svg">
<path d="M17.8967 27.273C17.9926 27.3687 18.0686 27.4825 18.1205 27.6077C18.1724 27.7329 18.1991 27.8671 18.1991 28.0026C18.1991 28.1381 18.1724 28.2723 18.1205 28.3975C18.0686 28.5227 17.9926 28.6364 17.8967 28.7322L16.1865 30.4406C14.4457 32.1815 12.0846 33.1595 9.62261 33.1595C7.16067 33.1595 4.79956 32.1815 3.0587 30.4406C1.31785 28.6998 0.339844 26.3387 0.339844 23.8767C0.339844 21.4148 1.31785 19.0537 3.0587 17.3128L7.20261 13.1672C8.87641 11.4915 11.1275 10.5191 13.4949 10.4491C15.8624 10.3791 18.167 11.2169 19.9368 12.7908C20.0384 12.8811 20.1212 12.9905 20.1805 13.1127C20.2398 13.235 20.2744 13.3678 20.2824 13.5034C20.2903 13.6391 20.2715 13.775 20.227 13.9034C20.1824 14.0318 20.113 14.1501 20.0228 14.2517C19.9325 14.3533 19.8231 14.4361 19.7008 14.4954C19.5785 14.5546 19.4458 14.5893 19.3101 14.5972C19.1744 14.6052 19.0385 14.5864 18.9101 14.5419C18.7818 14.4973 18.6634 14.4279 18.5618 14.3376C17.1854 13.1149 15.3938 12.4643 13.5535 12.519C11.7132 12.5736 9.96332 13.3293 8.66183 14.6316L4.5162 18.7703C3.1619 20.1246 2.40106 21.9614 2.40106 23.8767C2.40106 25.792 3.1619 27.6288 4.5162 28.9831C5.87051 30.3374 7.70733 31.0983 9.62261 31.0983C11.5379 31.0983 13.3747 30.3374 14.729 28.9831L16.4375 27.273C16.5332 27.1771 16.647 27.101 16.7722 27.0491C16.8973 26.9972 17.0315 26.9705 17.1671 26.9705C17.3026 26.9705 17.4368 26.9972 17.562 27.0491C17.6872 27.101 17.8009 27.1771 17.8967 27.273ZM29.94 3.55421C28.198 1.81551 25.8373 0.838989 23.376 0.838989C20.9148 0.838989 18.5541 1.81551 16.8121 3.55421L15.102 5.26265C14.9085 5.45615 14.7998 5.7186 14.7998 5.99226C14.7998 6.26591 14.9085 6.52836 15.102 6.72187C15.2955 6.91537 15.5579 7.02408 15.8316 7.02408C16.1052 7.02408 16.3677 6.91537 16.5612 6.72187L18.2696 5.00312C19.6239 3.64881 21.4608 2.88797 23.376 2.88797C25.2913 2.88797 27.1281 3.64881 28.4825 5.00312C29.8368 6.35742 30.5976 8.19425 30.5976 10.1095C30.5976 12.0248 29.8368 13.8616 28.4825 15.2159L24.3368 19.3736C23.0353 20.6758 21.2855 21.4315 19.4452 21.4862C17.6049 21.5408 15.8133 20.8902 14.4368 19.6675C14.2317 19.4852 13.9625 19.3918 13.6886 19.4079C13.4146 19.424 13.1582 19.5483 12.9759 19.7534C12.7936 19.9586 12.7002 20.2277 12.7163 20.5017C12.7324 20.7757 12.8567 21.032 13.0618 21.2144C14.8315 22.7873 17.1354 23.6244 19.502 23.5544C21.8686 23.4844 24.119 22.5127 25.7926 20.838L29.9365 16.6923C30.7997 15.8306 31.4845 14.8071 31.9519 13.6805C32.4193 12.5539 32.66 11.3463 32.6603 10.1266C32.6606 8.90686 32.4205 7.69906 31.9538 6.57221C31.487 5.44536 30.8027 4.42157 29.94 3.55937V3.55421Z" fill="#004098"/>
</svg>
