<svg width="17" height="13" viewBox="0 0 17 13" fill="none" xmlns="http://www.w3.org/2000/svg">
<path d="M16.48 1.9199C15.92 2.1599 15.28 2.3199 14.64 2.3999C15.28 1.9999 15.84 1.3599 16.08 0.639905C15.44 1.0399 14.8 1.2799 14 1.4399C13.44 0.799905 12.56 0.399902 11.68 0.399902C9.91998 0.399902 8.47998 1.8399 8.47998 3.5999C8.47998 3.8399 8.47998 4.0799 8.55998 4.3199C5.91999 4.1599 3.51998 2.8799 1.91998 0.9599C1.67998 1.4399 1.51998 1.9999 1.51998 2.5599C1.51998 3.6799 2.07999 4.6399 2.95999 5.1999C2.39999 5.1999 1.91998 5.0399 1.51998 4.7999C1.51998 6.3199 2.63998 7.6799 4.07998 7.9199C3.83998 7.9999 3.51999 7.9999 3.19999 7.9999C2.95999 7.9999 2.79999 7.9999 2.55999 7.9199C2.95999 9.1999 4.15999 10.1599 5.59999 10.1599C4.47999 11.0399 3.11999 11.5199 1.59999 11.5199C1.35999 11.5199 1.11999 11.5199 0.799988 11.4399C2.23999 12.3199 3.91999 12.8799 5.75998 12.8799C11.68 12.8799 14.88 7.9999 14.88 3.7599V3.3599C15.52 3.1199 16.08 2.5599 16.48 1.9199Z" fill="#004098"/>
</svg>
