<svg width="17" height="17" viewBox="0 0 17 17" fill="none" xmlns="http://www.w3.org/2000/svg">
<path d="M14.3415 2.64983C12.761 1.07483 10.6537 0.199829 8.42927 0.199829C3.80488 0.199829 0.0585357 3.93316 0.0585357 8.5415C0.0585357 9.99983 0.468293 11.4582 1.17073 12.6832L0 16.9998L4.44878 15.8332C5.67805 16.4748 7.02439 16.8248 8.42927 16.8248C13.0537 16.8248 16.8 13.0915 16.8 8.48316C16.7415 6.32483 15.9219 4.22483 14.3415 2.64983ZM12.4683 11.5165C12.2927 11.9832 11.4732 12.4498 11.0634 12.5082C10.7122 12.5665 10.2439 12.5665 9.77561 12.4498C9.48293 12.3332 9.07317 12.2165 8.60488 11.9832C6.49756 11.1082 5.15122 9.00816 5.03415 8.83316C4.91707 8.71649 4.1561 7.72483 4.1561 6.67483C4.1561 5.62483 4.68293 5.15816 4.85854 4.92483C5.03415 4.69149 5.26829 4.69149 5.4439 4.69149C5.56098 4.69149 5.73658 4.69149 5.85366 4.69149C5.97073 4.69149 6.14634 4.63316 6.32195 5.0415C6.49756 5.44983 6.90732 6.49983 6.96585 6.55816C7.02439 6.67483 7.02439 6.7915 6.96585 6.90816C6.90732 7.02483 6.84878 7.14149 6.7317 7.25816C6.61463 7.37483 6.49756 7.54983 6.43902 7.60816C6.32195 7.72483 6.20488 7.84149 6.32195 8.01649C6.43902 8.24983 6.84878 8.89149 7.49268 9.47483C8.31219 10.1748 8.9561 10.4082 9.19024 10.5248C9.42439 10.6415 9.54146 10.5832 9.65853 10.4665C9.77561 10.3498 10.1854 9.88316 10.3024 9.64983C10.4195 9.4165 10.5951 9.47483 10.7707 9.53316C10.9463 9.5915 12 10.1165 12.1756 10.2332C12.4098 10.3498 12.5268 10.4082 12.5854 10.4665C12.6439 10.6415 12.6439 11.0498 12.4683 11.5165Z" fill="white"/>
</svg>
