<svg width="18" height="12" viewBox="0 0 18 12" fill="none" xmlns="http://www.w3.org/2000/svg">
<path fill-rule="evenodd" clip-rule="evenodd" d="M2.01 11.6453C1.69619 11.5525 1.40986 11.3873 1.17518 11.1638C0.940491 10.9402 0.764334 10.6648 0.66157 10.3609C0.074349 8.78977 -0.0996426 2.22942 1.0313 0.934337C1.4077 0.513037 1.93913 0.253653 2.51023 0.212485C5.5442 -0.105978 14.918 -0.0635162 15.9946 0.31864C16.2974 0.414536 16.574 0.576083 16.8038 0.791175C17.0335 1.00627 17.2104 1.26933 17.3212 1.56065C17.9628 3.18481 17.9846 9.08701 17.2343 10.6475C17.0352 11.0537 16.702 11.3827 16.2882 11.5816C15.1572 12.1336 3.51068 12.123 2.01 11.6453ZM6.82739 8.56685L12.2646 5.80683L6.82739 3.02558V8.56685Z" fill="#004098"/>
</svg>
